<svg xmlns="http://www.w3.org/2000/svg" width="32" height="32" viewBox="0 0 32 32">
    <path style="fill:none" d="M0 0h32v32H0z"/>
    <path d="M26.217 4.263H5.783A2.383 2.383 0 0 0 3.45 6.688v18.7a2.383 2.383 0 0 0 2.333 2.425h20.434a2.383 2.383 0 0 0 2.333-2.423V6.688a2.383 2.383 0 0 0-2.333-2.425m1.413 4.778V25.39a1.446 1.446 0 0 1-1.413 1.473H5.783A1.446 1.446 0 0 1 4.37 25.39V9.041zm0-2.353v1.4H4.37v-1.4a1.446 1.446 0 0 1 1.413-1.473h20.434a1.446 1.446 0 0 1 1.413 1.473m-6.041-.51a.52.52 0 0 1 0 .753.4.4 0 0 1-.173.118.442.442 0 0 1-.2.041.548.548 0 0 1-.536-.536.433.433 0 0 1 .045-.207.378.378 0 0 1 .119-.172.509.509 0 0 1 .36-.149h.008a.536.536 0 0 1 .378.152m1.943 0a.517.517 0 0 1 0 .752.372.372 0 0 1-.173.118.436.436 0 0 1-.2.041.548.548 0 0 1-.535-.536.445.445 0 0 1 .044-.207.368.368 0 0 1 .117-.169.513.513 0 0 1 .363-.152h.008a.533.533 0 0 1 .378.153m1.943 0a.517.517 0 0 1 0 .752.377.377 0 0 1-.173.118.436.436 0 0 1-.2.041.548.548 0 0 1-.535-.536.43.43 0 0 1 .044-.207.37.37 0 0 1 .117-.169.513.513 0 0 1 .363-.152h.006a.533.533 0 0 1 .378.153" transform="translate(0 -.039)" style="fill:#4d4d4d"/>
</svg>
