<svg xmlns="http://www.w3.org/2000/svg" width="24" height="24" viewBox="0 0 24 24">
    <path style="fill:none" d="M0 0h24v24H0z"/>
    <path d="M537.783 42.621a.354.354 0 0 1-.351.357H532.3v5.216a.351.351 0 1 1-.7 0v-5.216h-5.128a.357.357 0 0 1 0-.713h5.128v-5.217a.351.351 0 1 1 .7 0v5.217h5.128a.354.354 0 0 1 .355.356zm3.922.05a9.75 9.75 0 1 1-9.75-9.751 9.761 9.761 0 0 1 9.75 9.752zm-.749 0a9 9 0 1 0-9 8.987 9.005 9.005 0 0 0 9-8.986z" transform="translate(-519.955 -30.671)" style="fill:#4d4d4d"/>
</svg>
