<svg xmlns="http://www.w3.org/2000/svg" width="32" height="32" viewBox="0 0 32 32">
    <path style="fill:none" d="M0 0h32v32H0z"/>
    <path d="M66.2 22.473v-.006l-.065-.367h-1.654a5.66 5.66 0 0 0-.455-1.072l1.16-1.133.018-.017-.221-.312a7.206 7.206 0 0 0-1.767-1.743l-.313-.215-1.138 1.192a5.686 5.686 0 0 0-1.018-.421v-1.658l-.368-.064a7.241 7.241 0 0 0-2.568.005l-.347.062h-.025l.032 1.65a5.294 5.294 0 0 0-.939.385l-1.185-1.14-.018-.017-.3.2a7.172 7.172 0 0 0-1.761 1.719l-.233.322 1.209 1.092a5.486 5.486 0 0 0-.508 1.165h-1.655l-.064.367a7.3 7.3 0 0 0 0 2.536l.064.369h1.656a5.573 5.573 0 0 0 .41.992l-1.155 1.147-.019.018.215.308a7.233 7.233 0 0 0 1.712 1.739l.289.208.021.014 1.156-1.169a5.54 5.54 0 0 0 1.112.475v1.657l.366.063a7.187 7.187 0 0 0 2.55 0l.341-.062h.024l.006-1.657a5.646 5.646 0 0 0 1.135-.485l1.175 1.125.018.017.3-.221a7.215 7.215 0 0 0 1.7-1.773l.188-.279.014-.02-1.162-1.2a5.638 5.638 0 0 0 .355-.885h1.656l.065-.368a7.289 7.289 0 0 0 .112-1.242v-.025a7.373 7.373 0 0 0-.113-1.276m-.822 2.018h-1.6l-.086.342a4.686 4.686 0 0 1-.512 1.283l-.169.291 1.113 1.15a6.349 6.349 0 0 1-.987 1.033l-1.136-1.082-.017-.016-.3.2a4.728 4.728 0 0 1-1.491.647l-.318.076-.023.006v1.591a6.6 6.6 0 0 1-1.5 0v-1.59l-.341-.082a4.622 4.622 0 0 1-1.485-.638l-.283-.185-.021-.012-1.116 1.127a6.223 6.223 0 0 1-.973-.994l1.113-1.1.017-.017-.184-.3a4.65 4.65 0 0 1-.571-1.383l-.08-.343h-1.594a6.393 6.393 0 0 1 0-1.489h1.592l.08-.343a4.648 4.648 0 0 1 .677-1.548l.215-.321-1.169-1.056a6.231 6.231 0 0 1 1.009-.979l1.134 1.1.016.016.293-.175a4.637 4.637 0 0 1 1.334-.541l.35-.084-.031-1.585a6.489 6.489 0 0 1 1.513 0v1.59l.344.082a4.627 4.627 0 0 1 1.409.587l.287.179.021.012 1.1-1.147a6.276 6.276 0 0 1 1.015 1l-1.117 1.092-.014.015.2.3a4.608 4.608 0 0 1 .62 1.453l.08.347h1.584a6.389 6.389 0 0 1 0 1.495m-6.269-3.577v-.006a2.83 2.83 0 1 1 0 .006m0 4.765a1.939 1.939 0 1 1 1.934-1.935 1.94 1.94 0 0 1-1.934 1.935M56.061 6.139a.52.52 0 0 1 0 .753.4.4 0 0 1-.173.118.429.429 0 0 1-.2.041.548.548 0 0 1-.536-.535.431.431 0 0 1 .045-.207.374.374 0 0 1 .119-.173.509.509 0 0 1 .36-.149h.008a.536.536 0 0 1 .378.152M58 6.14a.517.517 0 0 1 0 .752.372.372 0 0 1-.173.118.424.424 0 0 1-.2.041.549.549 0 0 1-.535-.535.442.442 0 0 1 .044-.207.371.371 0 0 1 .117-.17.513.513 0 0 1 .363-.152h.008A.537.537 0 0 1 58 6.14m1.943 0a.517.517 0 0 1 0 .752.377.377 0 0 1-.173.118.427.427 0 0 1-.2.041.549.549 0 0 1-.535-.535.425.425 0 0 1 .044-.207.379.379 0 0 1 .117-.17.513.513 0 0 1 .363-.152h.008a.537.537 0 0 1 .378.153m-8.277 20.683H40.255a1.446 1.446 0 0 1-1.413-1.472V9H62.1v7.074a.46.46 0 0 0 .92 0V6.649a2.383 2.383 0 0 0-2.333-2.425H40.255a2.383 2.383 0 0 0-2.333 2.425v18.7a2.382 2.382 0 0 0 2.333 2.424h11.413a.476.476 0 0 0 0-.953M38.842 6.649a1.446 1.446 0 0 1 1.413-1.473h20.434A1.446 1.446 0 0 1 62.1 6.649v1.4H38.842z" transform="translate(-34.472)" style="fill:#4d4d4d"/>
</svg>
