<svg xmlns="http://www.w3.org/2000/svg" width="32.001" height="32" viewBox="0 0 32.001 32">
    <path style="fill:none" d="M0 0h32v32H0z"/>
    <circle cx="16" cy="16" r="16" style="fill:#fff"/>
    <path d="M100.134 326.457h14.05v-2.971a3.6 3.6 0 0 0-3.72-3.486 4.837 4.837 0 0 0-1.854.376 4.654 4.654 0 0 1-2.9 0 3.682 3.682 0 0 0-1.51-.376c-4.006 0-4.064 3.338-4.064 3.371zm4.068-5.978a3.244 3.244 0 0 1 1.284.323 5.065 5.065 0 0 0 3.354 0 4.419 4.419 0 0 1 1.624-.32h.2a3.142 3.142 0 0 1 3.04 3.24v2.257h-13.085v-2.607c-.002-.121.039-2.893 3.581-2.893zm2.957-1.391a4.241 4.241 0 1 0-4.241-4.241 4.253 4.253 0 0 0 4.241 4.241zm0-8a3.759 3.759 0 1 1-3.759 3.759 3.77 3.77 0 0 1 3.759-3.759zm0-7.875a15.55 15.55 0 1 1-15.55 15.55 15.567 15.567 0 0 1 15.55-15.55m0-.45a16 16 0 1 0 16 16 16 16 0 0 0-16-16z" transform="translate(-91.158 -302.763)" style="fill:#e20303"/>
</svg>
