<svg xmlns="http://www.w3.org/2000/svg" width="120" height="28" viewBox="0 0 120 28">
    <defs>
        <style>
            .cls-1{fill:#9f9f9f}.cls-2{fill:#e20303}
        </style>
    </defs>
    <g id="ips_header_logo_grey" transform="translate(0 -.1)">
        <path id="Pfad_14" data-name="Pfad 14" class="cls-1" d="M162.688 91.564v3.313h-.744l-.24-.653a3.877 3.877 0 0 1-2.352.725c-1.608 0-3.552-.8-3.552-3.313a3.184 3.184 0 0 1 3.5-3.337c1.44 0 3.024.532 3.312 2.128h-1.248c-.144-.314-.48-1.064-1.92-1.064A2.164 2.164 0 0 0 157 91.588a2.142 2.142 0 0 0 2.328 2.273 2.008 2.008 0 0 0 2.184-1.306h-2.184v-.991h3.36" transform="translate(-118.408 -66.874)"/>
        <path id="Pfad_15" data-name="Pfad 15" class="cls-1" d="M200.276 91.9c1.008 0 1.512-.145 1.512-.895s-.5-.895-1.512-.895h-2.352v1.79h2.352m-3.576-2.8h3.768c1.488 0 2.568.339 2.568 1.886a1.777 1.777 0 0 1-1.752 1.862l1.92 2.587h-1.512l-1.824-2.491h-1.944v2.491H196.7z" transform="translate(-149.492 -67.48)"/>
        <path id="Pfad_16" data-name="Pfad 16" class="cls-1" d="M240.264 91.713c0-1.523-1.08-2.249-2.52-2.249s-2.52.725-2.52 2.249c0 1.789 1.344 2.273 2.52 2.273 1.176-.024 2.52-.508 2.52-2.273m-2.52-3.313c2.76 0 3.744 1.644 3.744 3.361 0 1.306-.768 3.264-3.744 3.264S234 93.067 234 91.761c0-1.717.984-3.361 3.744-3.361" transform="translate(-177.84 -66.949)"/>
        <path id="Pfad_17" data-name="Pfad 17" class="cls-1" d="M283.472 92.7c0 2.031-1.3 2.877-3.336 2.877s-3.336-.843-3.336-2.877v-3.6h1.224v3.53c0 1.04.384 1.886 2.112 1.886s2.112-.846 2.112-1.886V89.1h1.224v3.6" transform="translate(-210.368 -67.48)"/>
        <path id="Pfad_18" data-name="Pfad 18" class="cls-1" d="M321.744 91.9c.7 0 1.32-.073 1.32-.87 0-.822-.6-.87-1.32-.87H319.2v1.74h2.544M318 89.1h3.5c1.056 0 2.808 0 2.808 1.934s-1.752 1.934-2.808 1.934h-2.28v2.466H318z" transform="translate(-241.68 -67.48)"/>
        <path id="Pfad_19" data-name="Pfad 19" class="cls-2" d="M65.524 15.3H61.3v7.762a4.134 4.134 0 0 0 4.056 4.111h4.92v-3.507h-3.72a1.014 1.014 0 0 1-1.032-1.04V15.3" transform="translate(-46.588 -11.525)"/>
        <path id="Pfad_20" data-name="Pfad 20" class="cls-2" d="M115.508 19.6h-3.576a.631.631 0 0 1-.1-1.257h6.384V15.2H110.9a3.525 3.525 0 0 0-3.6 3.748c0 2.1 1.344 3.361 3.6 3.361h3.576a.631.631 0 0 1 .1 1.257h-7.1V27.1h8.04a3.525 3.525 0 0 0 3.6-3.748 3.525 3.525 0 0 0-3.6-3.748" transform="translate(-81.548 -11.449)"/>
        <path id="Pfad_21" data-name="Pfad 21" class="cls-2" d="M8.4 21.563a1.034 1.034 0 0 1-.048-1.451l.048-.048 4.944-4.764H8.136l-3.192 3.022a3.607 3.607 0 0 0-.72.991v-3.99H0V27.2h4.224v-4.86a4.182 4.182 0 0 0 .72.991l4.08 3.845h5.232L8.4 21.563" transform="translate(0 -11.525)"/>
        <path id="Pfad_22" data-name="Pfad 22" class="cls-1" d="M382.172.1H377.9v11.389a4.154 4.154 0 0 0 4.1 4.159h4.584V12.19h-3.36a1.039 1.039 0 0 1-1.056-1.064v-3.99h4.416V3.7h-4.44l.024-3.6" transform="translate(-287.204)"/>
        <path id="Rechteck_2" data-name="Rechteck 2" class="cls-1" transform="translate(101.088 3.679)" d="M0 0h4.296v11.969H0z"/>
        <path id="Pfad_23" data-name="Pfad 23" class="cls-1" d="M192.424 15h-2.016a4.163 4.163 0 0 0-3.288 1.62 4.152 4.152 0 0 0-3.264-1.62h-2.424a3.957 3.957 0 0 0-1.944.508V15H175v11.969h4.488V19.5a1.019 1.019 0 0 1 1.056-1.04h2.112a1.034 1.034 0 0 1 1.056 1.04v7.447h4.3V19.5a1.019 1.019 0 0 1 1.056-1.04h2.16a1.034 1.034 0 0 1 1.056 1.04v7.447h4.3v-7.81a4.158 4.158 0 0 0-4.16-4.137" transform="translate(-133 -11.297)"/>
        <path id="Pfad_24" data-name="Pfad 24" class="cls-1" d="M341.128 15A4.159 4.159 0 0 0 337 19.159v7.81h4.3V19.5a1.019 1.019 0 0 1 1.056-1.04h2.784V15h-4.008" transform="translate(-256.12 -11.297)"/>
        <path id="Pfad_25" data-name="Pfad 25" class="cls-1" d="M458.96 19.059a4.175 4.175 0 0 0-4.128-4.159H446v11.969h4.3v-8.511h3.312a1.049 1.049 0 0 1 1.056 1.04v7.447h4.3v-7.786" transform="translate(-338.96 -11.221)"/>
        <path id="Pfad_26" data-name="Pfad 26" class="cls-1" d="M276.9 15a5.815 5.815 0 0 0-4.176 1.765A6.005 6.005 0 0 0 271 21a6 6 0 0 0 5.928 6h2.952v-3.489h-1.9a2.5 2.5 0 0 1-2.232-1.378 2.761 2.761 0 0 1-.288-1.161v-.024a2.714 2.714 0 0 1 .264-1.136 3.166 3.166 0 0 1 .456-.653 2.362 2.362 0 0 1 1.776-.725h2.9v8.511h4.3V15H276.9" transform="translate(-205.96 -11.297)"/>
    </g>
</svg>
