<svg id="placeholder_icon_plus" xmlns="http://www.w3.org/2000/svg" width="260" height="260" viewBox="0 0 260 260">
    <defs>
        <style>
            .cls-1{fill:#fff}.cls-6{fill:#4d4d4d}
        </style>
    </defs>
    <circle id="max-area" class="cls-1" cx="130" cy="130" r="130"/>
    <circle id="background" cx="110.5" cy="110.5" r="110.5" transform="translate(19.5 19.5)" style="opacity:.1;fill:#e20303"/>
    <g id="layers" transform="translate(18.2 87.702)">
        <path id="background-1" d="M162.609 138.984v52.745a112.209 112.209 0 0 1-138.722-52.745z" transform="translate(-11.034 -46.007)" style="opacity:.65;fill:#fff"/>
        <path id="background-2" d="M165.575 68.614v84.7H23.829a112.458 112.458 0 0 1-2.955-84.7z" transform="translate(-14 -67.118)" style="opacity:.85;fill:#fff"/>
        <path id="dotted-border" d="M163.714 154.953h-5.2a1.3 1.3 0 0 1 0-2.6h5.2a1.3 1.3 0 0 1 0 2.6zm-14.3 0h-5.2a1.3 1.3 0 1 1 0-2.6h5.2a1.3 1.3 0 1 1 0 2.6zm-14.3 0h-5.2a1.3 1.3 0 1 1 0-2.6h5.2a1.3 1.3 0 1 1 0 2.6zm-14.3 0h-5.2a1.3 1.3 0 0 1 0-2.6h5.2a1.3 1.3 0 0 1 0 2.6zm-14.3 0h-5.2a1.3 1.3 0 1 1 0-2.6h5.2a1.3 1.3 0 1 1 0 2.6zm-14.3 0h-5.2a1.3 1.3 0 0 1 0-2.6h5.2a1.3 1.3 0 0 1 0 2.6zm-14.3 0h-5.2a1.3 1.3 0 1 1 0-2.6h5.2a1.3 1.3 0 1 1 0 2.6zm-14.3 0h-5.2a1.3 1.3 0 1 1 0-2.6h5.2a1.3 1.3 0 1 1 0 2.6zm-14.3 0h-5.2a1.3 1.3 0 1 1 0-2.6h5.2a1.3 1.3 0 0 1 0 2.6zm-14.3 0h-5.2a1.3 1.3 0 0 1 0-2.6h5.2a1.3 1.3 0 0 1 0 2.6zm129.129-8.672a1.3 1.3 0 0 1-1.3-1.3v-5.2a1.3 1.3 0 0 1 2.6 0v5.2a1.3 1.3 0 0 1-1.302 1.3zm0-14.3a1.3 1.3 0 0 1-1.3-1.3v-5.2a1.3 1.3 0 1 1 2.6 0v5.2a1.3 1.3 0 0 1-1.302 1.3zm0-14.3a1.3 1.3 0 0 1-1.3-1.3v-5.2a1.3 1.3 0 0 1 2.6 0v5.2a1.3 1.3 0 0 1-1.302 1.3zm0-14.3a1.3 1.3 0 0 1-1.3-1.3v-5.2a1.3 1.3 0 0 1 2.6 0v5.2a1.3 1.3 0 0 1-1.302 1.3zm0-14.3a1.3 1.3 0 0 1-1.3-1.3v-5.2a1.3 1.3 0 0 1 2.6 0v5.2a1.3 1.3 0 0 1-1.302 1.3zm0-14.3a1.3 1.3 0 0 1-1.3-1.3v-3.707a1.3 1.3 0 0 1 .818-2.311h1.782v6.018a1.3 1.3 0 0 1-1.302 1.3zm-9.582-4.718h-5.2a1.3 1.3 0 1 1 0-2.6h5.2a1.3 1.3 0 1 1 0 2.6zm-14.3 0h-5.2a1.3 1.3 0 1 1 0-2.6h5.2a1.3 1.3 0 1 1 0 2.6zm-14.3 0h-5.2a1.3 1.3 0 1 1 0-2.6h5.2a1.3 1.3 0 1 1 0 2.6zm-14.3 0h-5.2a1.3 1.3 0 1 1 0-2.6h5.2a1.3 1.3 0 1 1 0 2.6zm-14.3 0h-5.2a1.3 1.3 0 1 1 0-2.6h5.2a1.3 1.3 0 1 1 0 2.6zm-14.3 0h-5.2a1.3 1.3 0 0 1 0-2.6h5.2a1.3 1.3 0 0 1 0 2.6zm-14.3 0h-5.2a1.3 1.3 0 1 1 0-2.6h5.2a1.3 1.3 0 1 1 0 2.6zm-14.3 0h-5.2a1.3 1.3 0 1 1 0-2.6h5.2a1.3 1.3 0 1 1 0 2.6zm-14.3 0h-5.2a1.3 1.3 0 1 1 0-2.6h5.2a1.3 1.3 0 1 1 0 2.6zm-14.3 0h-5.2a1.3 1.3 0 1 1 0-2.6h5.2a1.3 1.3 0 1 1 0 2.6z" transform="translate(-12.392 -67.463)" style="fill:#e20303"/>
    </g>
    <g id="plus" transform="translate(120.359 19.15)">
        <circle id="background-2-2" data-name="background" class="cls-1" cx="56.291" cy="56.291" r="56.291" transform="translate(2.213 2.236)"/>
        <path id="border" class="cls-6" d="M150.841 126.7a53.708 53.708 0 1 0-53.786-53.71 53.708 53.708 0 0 0 53.786 53.71m0-111.966a58.259 58.259 0 1 1-58.257 58.258 58.328 58.328 0 0 1 58.257-58.257" transform="translate(-92.584 -14.731)"/>
        <path id="plus-2" data-name="plus" class="cls-6" d="M112.716 70.074h30.638v31.174a2.1 2.1 0 1 0 4.2 0V70.074h30.64a2.131 2.131 0 1 0 0-4.261h-30.646V34.64a2.1 2.1 0 0 0-4.2 0v31.173H112.71a2.131 2.131 0 0 0 0 4.261" transform="translate(-87.185 -9.388)"/>
    </g>
</svg>
